<?xml version="1.0" encoding="iso-8859-1"?>
<!-- Generator: Adobe Illustrator 19.0.0, SVG Export Plug-In . SVG Version: 6.00 Build 0)  -->
<svg version="1.1" id="Capa_1" xmlns="http://www.w3.org/2000/svg" xmlns:xlink="http://www.w3.org/1999/xlink" x="0px" y="0px"
	 viewBox="0 0 479.196 479.196" style="enable-background:new 0 0 479.196 479.196;" xml:space="preserve">
<g>
	<path d="M445.457,117.195C412.762,62.208,360.611,23.244,298.611,7.482c-62-15.762-126.428-6.438-181.415,26.257
		C62.208,66.433,23.245,118.585,7.482,180.585c-15.763,62-6.438,126.428,26.257,181.415s84.846,93.951,146.846,109.713
		c19.693,5.007,39.627,7.482,59.43,7.482c42.542,0,84.463-11.429,121.985-33.739c54.987-32.695,93.951-84.846,109.713-146.846
		S478.152,172.182,445.457,117.195z M184.282,457.176c-23.542-5.985-41.397-34.413-48.988-77.995
		c-8.063-46.289-4.234-104.305,10.78-163.361c20.502-80.643,59.648-150.653,100.512-180.337
		c11.074,7.484,24.973,13.616,40.444,17.549c11.586,2.946,22.984,4.39,33.568,4.39c3.55,0,7-0.172,10.342-0.495
		c21.729,45.595,22.686,125.8,2.183,206.448c-15.015,59.057-39.36,111.856-68.552,148.674
		c-23.772,29.982-48.872,46.337-70.453,46.335C190.748,458.384,187.461,457.984,184.282,457.176z M341.935,39.693
		c-13.598,3.85-32.437,3.574-51.209-1.198c-18.768-4.772-35.447-13.523-45.556-23.397c16.594,0.444,33.263,2.73,49.744,6.92
		C311.4,26.21,327.14,32.156,341.935,39.693z M46.632,354.334C15.985,302.791,7.244,242.398,22.019,184.281
		C36.795,126.164,73.319,77.279,124.862,46.632c31.321-18.623,65.905-29.149,101.265-31.233c2.252,3.572,5.084,7.039,8.44,10.35
		c-42.917,33.129-81.918,103.33-103.031,186.376c-15.524,61.062-19.438,121.305-11.02,169.632
		c4.302,24.697,11.626,44.951,21.497,60.094C102.555,422.912,69.51,392.811,46.632,354.334z M354.334,432.563
		c-38.476,22.878-81.884,33.542-125.595,31.336c15.905-8.591,32.012-22.889,47.586-42.531
		c30.477-38.438,55.811-93.235,71.335-154.297c21.116-83.057,20.368-163.358-1.524-212.96c4.53-1.305,8.687-2.987,12.371-5.048
		c30.069,18.719,55.434,44.479,74.057,75.798c30.647,51.543,39.388,111.936,24.613,170.053
		C442.401,353.032,405.877,401.916,354.334,432.563z"/>
	<path d="M387.867,94.392c-2.896-2.962-7.644-3.016-10.606-0.121c-2.962,2.896-3.016,7.644-0.121,10.606
		c4.326,4.425,8.487,9.116,12.369,13.942c1.482,1.842,3.656,2.8,5.849,2.8c1.649,0,3.31-0.542,4.696-1.656
		c3.228-2.596,3.74-7.317,1.144-10.545C397.014,104.217,392.529,99.161,387.867,94.392z"/>
	<path d="M53.033,192.166c1.021-4.015-1.406-8.096-5.42-9.117c-4.015-1.022-8.096,1.406-9.117,5.42
		c-12.189,47.945-6.842,98.738,15.056,143.022c1.308,2.645,3.966,4.177,6.729,4.177c1.116,0,2.25-0.25,3.318-0.778
		c3.713-1.836,5.235-6.334,3.399-10.047C46.684,283.764,41.725,236.645,53.033,192.166z"/>
	<path d="M83.75,352.601c-2.429-3.355-7.118-4.104-10.473-1.675s-4.105,7.119-1.675,10.473c4.046,5.587,8.42,11.034,13.001,16.189
		c1.482,1.667,3.541,2.518,5.609,2.518c1.771,0,3.55-0.624,4.979-1.894c3.096-2.751,3.376-7.492,0.625-10.588
		C91.564,362.84,87.505,357.785,83.75,352.601z"/>
	<path d="M409.67,134.093c-3.599,2.051-4.854,6.63-2.804,10.229c24.782,43.495,31.635,94.176,19.296,142.707
		c-1.021,4.015,1.406,8.096,5.42,9.117c0.62,0.158,1.242,0.233,1.854,0.233c3.349,0,6.4-2.26,7.263-5.654
		c13.3-52.313,5.913-106.943-20.8-153.829C417.849,133.297,413.269,132.043,409.67,134.093z"/>
</g>
<g>
</g>
<g>
</g>
<g>
</g>
<g>
</g>
<g>
</g>
<g>
</g>
<g>
</g>
<g>
</g>
<g>
</g>
<g>
</g>
<g>
</g>
<g>
</g>
<g>
</g>
<g>
</g>
<g>
</g>
</svg>
