<?xml version="1.0" encoding="utf-8"?>
<!-- Generator: Adobe Illustrator 24.0.1, SVG Export Plug-In . SVG Version: 6.00 Build 0)  -->
<svg version="1.1" id="Camada_1" xmlns="http://www.w3.org/2000/svg" xmlns:xlink="http://www.w3.org/1999/xlink" x="0px" y="0px"
	 viewBox="0 0 595.28 841.89" style="enable-background:new 0 0 595.28 841.89;" xml:space="preserve">
<style type="text/css">
	.st0{fill:#3DAA35;}
</style>
<path class="st0" d="M397.66,325v-47.63H200.04v272.58h197.62V439.16l43.59-61.43v202.27c0,7.97-2.31,15.62-6.37,21.29
	c-4.1,5.64-9.63,8.78-15.42,8.78H178.25c-12.04,0-21.8-13.46-21.8-30.06V247.3c0-16.61,9.76-30.06,21.8-30.06h241.21
	c12.04,0,21.8,13.46,21.8,30.06v16.27l22.21-31.29c8.42-11.86,22.23-12.06,30.83-0.46c8.58,11.62,8.74,30.65,0.33,42.52
	L321.65,518.1c-4.07,5.75-9.63,9-15.46,9.04c-0.03,0-0.08,0-0.11,0c-5.78,0-11.33-3.19-15.41-8.8l-71.4-98.5
	c-8.51-11.76-8.51-30.8,0-42.54s22.31-11.75,30.83,0l55.83,77.02L397.66,325z"/>
</svg>
