<?xml version="1.0" encoding="utf-8"?>
<!-- Generator: Adobe Illustrator 24.0.1, SVG Export Plug-In . SVG Version: 6.00 Build 0)  -->
<svg version="1.1" id="Camada_1" xmlns="http://www.w3.org/2000/svg" xmlns:xlink="http://www.w3.org/1999/xlink" x="0px" y="0px"
	 viewBox="0 0 595.28 841.89" style="enable-background:new 0 0 595.28 841.89;" xml:space="preserve">
<style type="text/css">
	.st0{fill:#4DAD33;}
</style>
<g>
	<path class="st0" d="M449.11,329.01l-36.01-36.42c-1.1-1.12-2.57-1.7-4.02-1.58c-1.47,0.11-2.84,0.89-3.81,2.16l-130.6,171.08
		l-46.44-70.74c-0.89-1.35-2.2-2.24-3.66-2.47c-1.45-0.25-2.94,0.2-4.11,1.23l-38.25,33.25c-2.45,2.13-2.93,6.13-1.08,8.95
		l85.99,130.98c1,1.53,2.56,2.46,4.23,2.53c0.07,0,0.14,0,0.2,0c1.59,0,3.11-0.79,4.17-2.17l173.91-227.8
		C451.64,335.38,451.42,331.34,449.11,329.01z"/>
</g>
</svg>
